<mxfile host="app.diagrams.net" modified="2024-03-10T08:49:38.399Z" agent="Mozilla/5.0 (Macintosh; Intel Mac OS X 10_15_7) AppleWebKit/537.36 (KHTML, like Gecko) Chrome/120.0.0.0 Whale/3.24.223.18 Safari/537.36" etag="tjiAqg0Zp1iKvq76Gt-q" version="24.0.0" type="github">
  <diagram name="페이지-1" id="Xa38Sybxr32NkZHonVsy">
    <mxGraphModel dx="388" dy="739" grid="1" gridSize="10" guides="1" tooltips="1" connect="1" arrows="1" fold="1" page="1" pageScale="1" pageWidth="1169" pageHeight="827" math="0" shadow="0">
      <root>
        <mxCell id="0" />
        <mxCell id="1" parent="0" />
        <mxCell id="l_Q-7kojC4Jw_uF3nJY8-1" value="" style="rounded=0;whiteSpace=wrap;html=1;fillColor=#dae8fc;strokeColor=#6c8ebf;" vertex="1" parent="1">
          <mxGeometry x="80" y="120" width="280" height="110" as="geometry" />
        </mxCell>
        <mxCell id="l_Q-7kojC4Jw_uF3nJY8-15" style="edgeStyle=orthogonalEdgeStyle;rounded=0;orthogonalLoop=1;jettySize=auto;html=1;exitX=1;exitY=0.5;exitDx=0;exitDy=0;entryX=0;entryY=0.5;entryDx=0;entryDy=0;" edge="1" parent="1" source="l_Q-7kojC4Jw_uF3nJY8-2" target="l_Q-7kojC4Jw_uF3nJY8-3">
          <mxGeometry relative="1" as="geometry" />
        </mxCell>
        <mxCell id="l_Q-7kojC4Jw_uF3nJY8-2" value="Consumer" style="rounded=1;whiteSpace=wrap;html=1;" vertex="1" parent="1">
          <mxGeometry x="90" y="170" width="100" height="40" as="geometry" />
        </mxCell>
        <mxCell id="l_Q-7kojC4Jw_uF3nJY8-3" value="Producer" style="rounded=1;whiteSpace=wrap;html=1;" vertex="1" parent="1">
          <mxGeometry x="250" y="170" width="100" height="40" as="geometry" />
        </mxCell>
        <mxCell id="l_Q-7kojC4Jw_uF3nJY8-4" value="&lt;b&gt;Application&lt;/b&gt;" style="text;html=1;align=center;verticalAlign=middle;whiteSpace=wrap;rounded=0;" vertex="1" parent="1">
          <mxGeometry x="190" y="130" width="60" height="30" as="geometry" />
        </mxCell>
        <mxCell id="l_Q-7kojC4Jw_uF3nJY8-6" value="" style="rounded=1;whiteSpace=wrap;html=1;fillColor=#d5e8d4;strokeColor=#82b366;" vertex="1" parent="1">
          <mxGeometry x="80" y="320" width="290" height="120" as="geometry" />
        </mxCell>
        <mxCell id="l_Q-7kojC4Jw_uF3nJY8-7" value="m1" style="rounded=0;whiteSpace=wrap;html=1;" vertex="1" parent="1">
          <mxGeometry x="100" y="370" width="50" height="50" as="geometry" />
        </mxCell>
        <mxCell id="l_Q-7kojC4Jw_uF3nJY8-8" value="m2" style="rounded=0;whiteSpace=wrap;html=1;" vertex="1" parent="1">
          <mxGeometry x="150" y="370" width="50" height="50" as="geometry" />
        </mxCell>
        <mxCell id="l_Q-7kojC4Jw_uF3nJY8-9" value="m3" style="rounded=0;whiteSpace=wrap;html=1;" vertex="1" parent="1">
          <mxGeometry x="200" y="370" width="50" height="50" as="geometry" />
        </mxCell>
        <mxCell id="l_Q-7kojC4Jw_uF3nJY8-10" value="m4" style="rounded=0;whiteSpace=wrap;html=1;" vertex="1" parent="1">
          <mxGeometry x="250" y="370" width="50" height="50" as="geometry" />
        </mxCell>
        <mxCell id="l_Q-7kojC4Jw_uF3nJY8-11" value="m5" style="rounded=0;whiteSpace=wrap;html=1;" vertex="1" parent="1">
          <mxGeometry x="300" y="370" width="50" height="50" as="geometry" />
        </mxCell>
        <mxCell id="l_Q-7kojC4Jw_uF3nJY8-12" value="&lt;b&gt;Kafka Broker&lt;/b&gt;" style="text;html=1;align=center;verticalAlign=middle;whiteSpace=wrap;rounded=0;" vertex="1" parent="1">
          <mxGeometry x="175" y="330" width="100" height="30" as="geometry" />
        </mxCell>
        <mxCell id="l_Q-7kojC4Jw_uF3nJY8-13" value="Third-Party&lt;div&gt;Service&lt;/div&gt;" style="rounded=1;whiteSpace=wrap;html=1;fillColor=#ffe6cc;strokeColor=#d79b00;" vertex="1" parent="1">
          <mxGeometry x="440" y="160" width="120" height="60" as="geometry" />
        </mxCell>
        <mxCell id="l_Q-7kojC4Jw_uF3nJY8-14" style="edgeStyle=orthogonalEdgeStyle;rounded=0;orthogonalLoop=1;jettySize=auto;html=1;" edge="1" parent="1" source="l_Q-7kojC4Jw_uF3nJY8-7">
          <mxGeometry relative="1" as="geometry">
            <mxPoint x="124" y="210" as="targetPoint" />
          </mxGeometry>
        </mxCell>
        <mxCell id="l_Q-7kojC4Jw_uF3nJY8-18" style="edgeStyle=orthogonalEdgeStyle;rounded=0;orthogonalLoop=1;jettySize=auto;html=1;exitX=1;exitY=0.25;exitDx=0;exitDy=0;entryX=0.006;entryY=0.326;entryDx=0;entryDy=0;entryPerimeter=0;" edge="1" parent="1" source="l_Q-7kojC4Jw_uF3nJY8-3" target="l_Q-7kojC4Jw_uF3nJY8-13">
          <mxGeometry relative="1" as="geometry" />
        </mxCell>
        <mxCell id="l_Q-7kojC4Jw_uF3nJY8-19" style="edgeStyle=orthogonalEdgeStyle;rounded=0;orthogonalLoop=1;jettySize=auto;html=1;exitX=0;exitY=0.75;exitDx=0;exitDy=0;entryX=0.999;entryY=0.854;entryDx=0;entryDy=0;entryPerimeter=0;dashed=1;" edge="1" parent="1" source="l_Q-7kojC4Jw_uF3nJY8-13" target="l_Q-7kojC4Jw_uF3nJY8-3">
          <mxGeometry relative="1" as="geometry" />
        </mxCell>
        <mxCell id="l_Q-7kojC4Jw_uF3nJY8-20" value="POST" style="text;html=1;align=center;verticalAlign=middle;whiteSpace=wrap;rounded=0;" vertex="1" parent="1">
          <mxGeometry x="370" y="150" width="60" height="30" as="geometry" />
        </mxCell>
        <mxCell id="l_Q-7kojC4Jw_uF3nJY8-21" value="502" style="text;html=1;align=center;verticalAlign=middle;whiteSpace=wrap;rounded=0;" vertex="1" parent="1">
          <mxGeometry x="370" y="210" width="60" height="30" as="geometry" />
        </mxCell>
      </root>
    </mxGraphModel>
  </diagram>
</mxfile>
